# xmcd CD database file
#
# Track frame offsets:
#	150
#	20478
#	46655
#
# Disc length: 892 seconds
#
# Revision: 0
# Processed by: cddbd v1.5PL3 Copyright (c) Steve Scherf et al.
# Submitted via: CDex 1.50beta8
#
DISCID=18037a03
DTITLE=ダンディ坂野 - ゲッツだぜ!!
DYEAR=2003
DGENRE=J-POP
TTITLE0=ゲッツだぜ!!
TTITLE1=OH! NICE GET's 〜ブギウギ ダンディ Classic Disco Funk Mix〜
TTITLE2=ゲッツだぜ!! （オリジナル・カラオケ）
EXTD=YEAR: 2003
EXTT0=
EXTT1=
EXTT2=
PLAYORDER=
